<?xml version="1.0" encoding="UTF-8"?>
<!DOCTYPE svg PUBLIC "-//W3C//DTD SVG 1.1//EN" "http://www.w3.org/Graphics/SVG/1.1/DTD/svg11.dtd">
<svg xmlns="http://www.w3.org/2000/svg" version="1.1" width="330px" height="330px" style="shape-rendering:geometricPrecision; text-rendering:geometricPrecision; image-rendering:optimizeQuality; fill-rule:evenodd; clip-rule:evenodd" xmlns:xlink="http://www.w3.org/1999/xlink">
<g><path style="opacity:0.991" fill="#fefefe" d="M 138.5,-0.5 C 155.833,-0.5 173.167,-0.5 190.5,-0.5C 269.628,16.9605 315.961,65.6272 329.5,145.5C 329.5,157.5 329.5,169.5 329.5,181.5C 317.01,258.828 272.677,306.995 196.5,326C 132.263,336.148 78.7628,316.981 36,268.5C 15.7343,242.862 3.56765,213.862 -0.5,181.5C -0.5,169.5 -0.5,157.5 -0.5,145.5C 13.0391,65.6272 59.3725,16.9605 138.5,-0.5 Z"/></g>
<g><path style="opacity:1" fill="#414142" d="M 208.5,37.5 C 213.949,36.9677 218.949,38.1343 223.5,41C 263.679,74.8824 274.179,116.382 255,165.5C 239.66,196.086 215.16,214.419 181.5,220.5C 181.667,240.503 181.5,260.503 181,280.5C 178.419,287.715 173.252,291.382 165.5,291.5C 158.587,290.794 154.087,287.127 152,280.5C 151.5,260.836 151.333,241.169 151.5,221.5C 107.435,213.939 79.2682,188.606 67,145.5C 59.1442,104.06 71.3109,69.8931 103.5,43C 114.19,36.9637 122.69,39.1303 129,49.5C 129.658,53.5715 129.325,57.5715 128,61.5C 122.054,67.4459 116.054,73.4459 110,79.5C 90.6667,108.167 90.6667,136.833 110,165.5C 120.837,178.678 134.503,187.344 151,191.5C 151.5,181.506 151.666,171.506 151.5,161.5C 134.898,154.698 126.232,142.198 125.5,124C 126.978,103.517 137.645,90.5167 157.5,85C 179.833,82.7457 195.333,91.9124 204,112.5C 208.498,133.831 201.331,149.831 182.5,160.5C 181.501,170.478 181.168,180.478 181.5,190.5C 208.85,182.65 226.35,164.983 234,137.5C 238.119,116.208 233.786,96.8751 221,79.5C 214.25,72.4128 207.25,65.7461 200,59.5C 196.463,49.5894 199.297,42.2561 208.5,37.5 Z"/></g>
<g><path style="opacity:1" fill="#fbfbfb" d="M 163.5,115.5 C 175.56,116.459 178.894,122.293 173.5,133C 168.505,136.472 163.672,136.306 159,132.5C 154.748,125.248 156.248,119.581 163.5,115.5 Z"/></g>
</svg>
